%TF.GenerationSoftware,KiCad,Pcbnew,10.0.0*%
%TF.CreationDate,2026-04-10T14:32:30-04:00*%
%TF.ProjectId,PCBsleepover,50434273-6c65-4657-906f-7665722e6b69,rev?*%
%TF.SameCoordinates,Original*%
%TF.FileFunction,Copper,L2,Bot*%
%TF.FilePolarity,Positive*%
%FSLAX46Y46*%
G04 Gerber Fmt 4.6, Leading zero omitted, Abs format (unit mm)*
G04 Created by KiCad (PCBNEW 10.0.0) date 2026-04-10 14:32:30*
%MOMM*%
%LPD*%
G01*
G04 APERTURE LIST*
G04 Aperture macros list*
%AMRoundRect*
0 Rectangle with rounded corners*
0 $1 Rounding radius*
0 $2 $3 $4 $5 $6 $7 $8 $9 X,Y pos of 4 corners*
0 Add a 4 corners polygon primitive as box body*
4,1,4,$2,$3,$4,$5,$6,$7,$8,$9,$2,$3,0*
0 Add four circle primitives for the rounded corners*
1,1,$1+$1,$2,$3*
1,1,$1+$1,$4,$5*
1,1,$1+$1,$6,$7*
1,1,$1+$1,$8,$9*
0 Add four rect primitives between the rounded corners*
20,1,$1+$1,$2,$3,$4,$5,0*
20,1,$1+$1,$4,$5,$6,$7,0*
20,1,$1+$1,$6,$7,$8,$9,0*
20,1,$1+$1,$8,$9,$2,$3,0*%
G04 Aperture macros list end*
%TA.AperFunction,ComponentPad*%
%ADD10C,2.000000*%
%TD*%
%TA.AperFunction,ComponentPad*%
%ADD11C,1.800000*%
%TD*%
%TA.AperFunction,ComponentPad*%
%ADD12R,1.800000X1.800000*%
%TD*%
%TA.AperFunction,ComponentPad*%
%ADD13C,1.600000*%
%TD*%
%TA.AperFunction,ComponentPad*%
%ADD14C,1.440000*%
%TD*%
%TA.AperFunction,ComponentPad*%
%ADD15RoundRect,0.250000X-0.550000X-0.550000X0.550000X-0.550000X0.550000X0.550000X-0.550000X0.550000X0*%
%TD*%
%TA.AperFunction,Conductor*%
%ADD16C,0.200000*%
%TD*%
G04 APERTURE END LIST*
D10*
%TO.P,SW1,1,1_1*%
%TO.N,Net-(U1-VCC)*%
X159750000Y-103250000D03*
X166250000Y-103250000D03*
%TO.P,SW1,2,2_2*%
%TO.N,Net-(BT1--)*%
X159750000Y-107750000D03*
X166250000Y-107750000D03*
%TD*%
D11*
%TO.P,D8,2,A_2*%
%TO.N,TOUT*%
X153000000Y-69500000D03*
D12*
%TO.P,D8,1,K_1*%
%TO.N,GND*%
X150460000Y-69500000D03*
%TD*%
D13*
%TO.P,R2,1*%
%TO.N,Net-(U1-THRES)*%
X155000000Y-93810000D03*
%TO.P,R2,2*%
%TO.N,Net-(U1-DISCH)*%
X155000000Y-86190000D03*
%TD*%
%TO.P,R1,2*%
%TO.N,TOUT*%
X149895000Y-86190000D03*
%TO.P,R1,1*%
%TO.N,Net-(U1-OUT)*%
X149895000Y-93810000D03*
%TD*%
D14*
%TO.P,R3,1*%
%TO.N,Net-(U1-DISCH)*%
X140460000Y-92540000D03*
%TO.P,R3,2*%
%TO.N,Net-(U1-VCC)*%
X143000000Y-90000000D03*
%TO.P,R3,3*%
%TO.N,N/C*%
X140460000Y-87460000D03*
%TD*%
D12*
%TO.P,D1,1,K_1*%
%TO.N,GND*%
X162225000Y-138500000D03*
D11*
%TO.P,D1,2,A_2*%
%TO.N,TOUT*%
X164765000Y-138500000D03*
%TD*%
D12*
%TO.P,D5,1,K_1*%
%TO.N,GND*%
X120460000Y-84500000D03*
D11*
%TO.P,D5,2,A_2*%
%TO.N,TOUT*%
X123000000Y-84500000D03*
%TD*%
D12*
%TO.P,D4,1,K_1*%
%TO.N,GND*%
X126455000Y-99500000D03*
D11*
%TO.P,D4,2,A_2*%
%TO.N,TOUT*%
X128995000Y-99500000D03*
%TD*%
D12*
%TO.P,D3,1,K_1*%
%TO.N,GND*%
X136725000Y-113000000D03*
D11*
%TO.P,D3,2,A_2*%
%TO.N,TOUT*%
X139265000Y-113000000D03*
%TD*%
%TO.P,D2,2,A_2*%
%TO.N,TOUT*%
X150770000Y-125000000D03*
D12*
%TO.P,D2,1,K_1*%
%TO.N,GND*%
X148230000Y-125000000D03*
%TD*%
%TO.P,D6,1,K_1*%
%TO.N,GND*%
X121460000Y-68000000D03*
D11*
%TO.P,D6,2,A_2*%
%TO.N,TOUT*%
X124000000Y-68000000D03*
%TD*%
D12*
%TO.P,D16,1,K_1*%
%TO.N,GND*%
X174730000Y-125500000D03*
D11*
%TO.P,D16,2,A_2*%
%TO.N,TOUT*%
X177270000Y-125500000D03*
%TD*%
D12*
%TO.P,D15,1,K_1*%
%TO.N,GND*%
X187500000Y-113000000D03*
D11*
%TO.P,D15,2,A_2*%
%TO.N,TOUT*%
X190040000Y-113000000D03*
%TD*%
D12*
%TO.P,D14,1,K_1*%
%TO.N,GND*%
X201000000Y-99000000D03*
D11*
%TO.P,D14,2,A_2*%
%TO.N,TOUT*%
X203540000Y-99000000D03*
%TD*%
D12*
%TO.P,D13,1,K_1*%
%TO.N,GND*%
X205460000Y-84000000D03*
D11*
%TO.P,D13,2,A_2*%
%TO.N,TOUT*%
X208000000Y-84000000D03*
%TD*%
D12*
%TO.P,D12,1,K_1*%
%TO.N,GND*%
X205500000Y-69000000D03*
D11*
%TO.P,D12,2,A_2*%
%TO.N,TOUT*%
X208040000Y-69000000D03*
%TD*%
D12*
%TO.P,D11,1,K_1*%
%TO.N,GND*%
X191960000Y-59500000D03*
D11*
%TO.P,D11,2,A_2*%
%TO.N,TOUT*%
X194500000Y-59500000D03*
%TD*%
D12*
%TO.P,D10,1,K_1*%
%TO.N,GND*%
X175960000Y-70000000D03*
D11*
%TO.P,D10,2,A_2*%
%TO.N,TOUT*%
X178500000Y-70000000D03*
%TD*%
D12*
%TO.P,D9,1,K_1*%
%TO.N,GND*%
X163460000Y-80060000D03*
D11*
%TO.P,D9,2,A_2*%
%TO.N,TOUT*%
X166000000Y-80060000D03*
%TD*%
D12*
%TO.P,D7,1,K_1*%
%TO.N,GND*%
X136460000Y-61000000D03*
D11*
%TO.P,D7,2,A_2*%
%TO.N,TOUT*%
X139000000Y-61000000D03*
%TD*%
D15*
%TO.P,C1,1*%
%TO.N,Net-(U1-THRES)*%
X188500000Y-76500000D03*
D13*
%TO.P,C1,2*%
%TO.N,GND*%
X191000000Y-76500000D03*
%TD*%
D15*
%TO.P,BT1,1,+_1*%
%TO.N,GND*%
X162200000Y-125000000D03*
D13*
%TO.P,BT1,2,-_2*%
%TO.N,Net-(BT1--)*%
X165800000Y-125000000D03*
%TD*%
%TO.N,GND*%
D16*
X144960000Y-69500000D02*
X150460000Y-69500000D01*
X136460000Y-61000000D02*
X144960000Y-69500000D01*
X162225000Y-129975000D02*
X164700000Y-127500000D01*
X162225000Y-138500000D02*
X162225000Y-129975000D01*
X173520000Y-70000000D02*
X175960000Y-70000000D01*
X163460000Y-80060000D02*
X173520000Y-70000000D01*
X198500000Y-69000000D02*
X191000000Y-76500000D01*
X205500000Y-69000000D02*
X198500000Y-69000000D01*
X172730000Y-127500000D02*
X164700000Y-127500000D01*
X164700000Y-127500000D02*
X162200000Y-125000000D01*
X174730000Y-125500000D02*
X172730000Y-127500000D01*
%TD*%
M02*
