%TF.GenerationSoftware,KiCad,Pcbnew,10.0.0*%
%TF.CreationDate,2026-04-10T14:32:31-04:00*%
%TF.ProjectId,PCBsleepover,50434273-6c65-4657-906f-7665722e6b69,rev?*%
%TF.SameCoordinates,Original*%
%TF.FileFunction,Soldermask,Bot*%
%TF.FilePolarity,Negative*%
%FSLAX46Y46*%
G04 Gerber Fmt 4.6, Leading zero omitted, Abs format (unit mm)*
G04 Created by KiCad (PCBNEW 10.0.0) date 2026-04-10 14:32:31*
%MOMM*%
%LPD*%
G01*
G04 APERTURE LIST*
G04 Aperture macros list*
%AMRoundRect*
0 Rectangle with rounded corners*
0 $1 Rounding radius*
0 $2 $3 $4 $5 $6 $7 $8 $9 X,Y pos of 4 corners*
0 Add a 4 corners polygon primitive as box body*
4,1,4,$2,$3,$4,$5,$6,$7,$8,$9,$2,$3,0*
0 Add four circle primitives for the rounded corners*
1,1,$1+$1,$2,$3*
1,1,$1+$1,$4,$5*
1,1,$1+$1,$6,$7*
1,1,$1+$1,$8,$9*
0 Add four rect primitives between the rounded corners*
20,1,$1+$1,$2,$3,$4,$5,0*
20,1,$1+$1,$4,$5,$6,$7,0*
20,1,$1+$1,$6,$7,$8,$9,0*
20,1,$1+$1,$8,$9,$2,$3,0*%
G04 Aperture macros list end*
%ADD10C,2.000000*%
%ADD11C,1.800000*%
%ADD12R,1.800000X1.800000*%
%ADD13C,1.600000*%
%ADD14C,1.440000*%
%ADD15RoundRect,0.250000X-0.550000X-0.550000X0.550000X-0.550000X0.550000X0.550000X-0.550000X0.550000X0*%
G04 APERTURE END LIST*
D10*
%TO.C,SW1*%
X159750000Y-103250000D03*
X166250000Y-103250000D03*
X159750000Y-107750000D03*
X166250000Y-107750000D03*
%TD*%
D11*
%TO.C,D8*%
X153000000Y-69500000D03*
D12*
X150460000Y-69500000D03*
%TD*%
D13*
%TO.C,R2*%
X155000000Y-93810000D03*
X155000000Y-86190000D03*
%TD*%
%TO.C,R1*%
X149895000Y-86190000D03*
X149895000Y-93810000D03*
%TD*%
D14*
%TO.C,R3*%
X140460000Y-92540000D03*
X143000000Y-90000000D03*
X140460000Y-87460000D03*
%TD*%
D12*
%TO.C,D1*%
X162225000Y-138500000D03*
D11*
X164765000Y-138500000D03*
%TD*%
D12*
%TO.C,D5*%
X120460000Y-84500000D03*
D11*
X123000000Y-84500000D03*
%TD*%
D12*
%TO.C,D4*%
X126455000Y-99500000D03*
D11*
X128995000Y-99500000D03*
%TD*%
D12*
%TO.C,D3*%
X136725000Y-113000000D03*
D11*
X139265000Y-113000000D03*
%TD*%
%TO.C,D2*%
X150770000Y-125000000D03*
D12*
X148230000Y-125000000D03*
%TD*%
%TO.C,D6*%
X121460000Y-68000000D03*
D11*
X124000000Y-68000000D03*
%TD*%
D12*
%TO.C,D16*%
X174730000Y-125500000D03*
D11*
X177270000Y-125500000D03*
%TD*%
D12*
%TO.C,D15*%
X187500000Y-113000000D03*
D11*
X190040000Y-113000000D03*
%TD*%
D12*
%TO.C,D14*%
X201000000Y-99000000D03*
D11*
X203540000Y-99000000D03*
%TD*%
D12*
%TO.C,D13*%
X205460000Y-84000000D03*
D11*
X208000000Y-84000000D03*
%TD*%
D12*
%TO.C,D12*%
X205500000Y-69000000D03*
D11*
X208040000Y-69000000D03*
%TD*%
D12*
%TO.C,D11*%
X191960000Y-59500000D03*
D11*
X194500000Y-59500000D03*
%TD*%
D12*
%TO.C,D10*%
X175960000Y-70000000D03*
D11*
X178500000Y-70000000D03*
%TD*%
D12*
%TO.C,D9*%
X163460000Y-80060000D03*
D11*
X166000000Y-80060000D03*
%TD*%
D12*
%TO.C,D7*%
X136460000Y-61000000D03*
D11*
X139000000Y-61000000D03*
%TD*%
D15*
%TO.C,C1*%
X188500000Y-76500000D03*
D13*
X191000000Y-76500000D03*
%TD*%
D15*
%TO.C,BT1*%
X162200000Y-125000000D03*
D13*
X165800000Y-125000000D03*
%TD*%
M02*
